<!-- Generator: Adobe Illustrator 16.0.0, SVG Export Plug-In . SVG Version: 6.00 Build 0)  -->
<svg xmlns="http://www.w3.org/2000/svg" xmlns:xlink="http://www.w3.org/1999/xlink" width="16px" height="16px" viewBox="0 0 16 16" version="1.1">
<g id="surface1">
<path style=" stroke:none;fill-rule:evenodd;fill:rgb(0%,0%,0%);fill-opacity:1;" d="M 7.941406 15.78125 C 12.265625 15.78125 15.800781 12.585938 15.800781 8.691406 C 15.800781 4.785156 12.265625 1.605469 7.941406 1.605469 C 3.609375 1.605469 0.0742188 4.785156 0.0742188 8.691406 C 0.0742188 12.585938 3.609375 15.78125 7.941406 15.78125 Z M 7.941406 15.78125 "/>
<path style=" stroke:none;fill-rule:evenodd;fill:rgb(94.509804%,37.254903%,15.294118%);fill-opacity:1;" d="M 6.410156 15.855469 C 2.769531 15.179688 0.0078125 12.214844 0.0078125 8.707031 C 0.0078125 5.328125 2.542969 2.472656 5.953125 1.640625 C 5.828125 2 5.753906 2.410156 5.753906 2.84375 C 5.753906 3.4375 5.882812 3.964844 6.082031 4.421875 C 3.421875 5.148438 1.472656 7.355469 1.472656 9.945312 C 1.472656 12.625 3.582031 14.902344 6.410156 15.53125 Z M 9.332031 15.890625 C 13.097656 15.3125 15.992188 12.296875 15.992188 8.707031 C 15.992188 5.125 13.15625 2.144531 9.457031 1.507812 C 9.488281 1.617188 9.523438 1.738281 9.554688 1.855469 C 12.398438 2.472656 14.519531 4.75 14.519531 7.453125 C 14.519531 10.238281 12.292969 12.550781 9.332031 13.09375 Z M 9.332031 15.890625 "/>
<path style=" stroke:none;fill-rule:evenodd;fill:rgb(99.215686%,85.882354%,13.333334%);fill-opacity:1;" d="M 7.726562 0 C 8.808594 0 9.679688 1.277344 9.679688 2.84375 C 9.679688 4.425781 8.808594 5.703125 7.726562 5.703125 C 6.644531 5.703125 5.753906 4.425781 5.753906 2.84375 C 5.753906 1.277344 6.644531 0 7.726562 0 Z M 9.332031 15.890625 C 8.898438 15.964844 8.449219 16 8 16 C 7.46875 16 6.925781 15.953125 6.410156 15.855469 L 6.410156 7.980469 L 9.332031 7.015625 Z M 9.332031 15.890625 "/>
<path style=" stroke:none;fill-rule:evenodd;fill:rgb(100%,100%,100%);fill-opacity:1;" d="M 7.726562 1.386719 C 8.265625 1.386719 8.722656 2.050781 8.722656 2.84375 C 8.722656 3.652344 8.265625 4.316406 7.726562 4.316406 C 7.175781 4.316406 6.71875 3.652344 6.71875 2.84375 C 6.71875 2.050781 7.175781 1.386719 7.726562 1.386719 Z M 7.726562 1.386719 "/>
</g>
</svg>
