<!-- Generator: Adobe Illustrator 16.0.0, SVG Export Plug-In . SVG Version: 6.00 Build 0)  -->
<svg xmlns="http://www.w3.org/2000/svg" xmlns:xlink="http://www.w3.org/1999/xlink" width="24px" height="24px" viewBox="0 0 24 24" version="1.1">
<g id="surface1">
<path style=" stroke:none;fill-rule:evenodd;fill:rgb(0%,0%,0%);fill-opacity:1;" d="M 11.914062 23.675781 C 18.398438 23.675781 23.703125 18.882812 23.703125 13.039062 C 23.703125 7.179688 18.398438 2.40625 11.914062 2.40625 C 5.414062 2.40625 0.109375 7.179688 0.109375 13.039062 C 0.109375 18.882812 5.414062 23.675781 11.914062 23.675781 Z M 11.914062 23.675781 "/>
<path style=" stroke:none;fill-rule:evenodd;fill:rgb(94.509804%,37.254903%,15.294118%);fill-opacity:1;" d="M 9.617188 23.78125 C 4.152344 22.769531 0.0117188 18.320312 0.0117188 13.058594 C 0.0117188 7.992188 3.816406 3.707031 8.929688 2.460938 C 8.742188 3.003906 8.632812 3.617188 8.632812 4.269531 C 8.632812 5.152344 8.824219 5.949219 9.125 6.636719 C 5.132812 7.71875 2.207031 11.03125 2.207031 14.921875 C 2.207031 18.9375 5.375 22.355469 9.617188 23.292969 Z M 13.996094 23.835938 C 19.648438 22.96875 23.988281 18.449219 23.988281 13.058594 C 23.988281 7.6875 19.734375 3.21875 14.183594 2.261719 C 14.234375 2.421875 14.28125 2.605469 14.332031 2.785156 C 18.597656 3.707031 21.78125 7.125 21.78125 11.175781 C 21.78125 15.355469 18.4375 18.828125 13.996094 19.640625 Z M 13.996094 23.835938 "/>
<path style=" stroke:none;fill-rule:evenodd;fill:rgb(99.215686%,85.882354%,13.333334%);fill-opacity:1;" d="M 11.589844 0 C 13.210938 0 14.519531 1.917969 14.519531 4.269531 C 14.519531 6.636719 13.210938 8.554688 11.589844 8.554688 C 9.964844 8.554688 8.632812 6.636719 8.632812 4.269531 C 8.632812 1.917969 9.964844 0 11.589844 0 Z M 13.996094 23.835938 C 13.347656 23.945312 12.671875 24 12 24 C 11.203125 24 10.390625 23.925781 9.617188 23.785156 L 9.617188 11.972656 L 13.996094 10.527344 Z M 13.996094 23.835938 "/>
<path style=" stroke:none;fill-rule:evenodd;fill:rgb(100%,100%,100%);fill-opacity:1;" d="M 11.589844 2.078125 C 12.398438 2.078125 13.085938 3.074219 13.085938 4.269531 C 13.085938 5.480469 12.398438 6.476562 11.589844 6.476562 C 10.765625 6.476562 10.078125 5.480469 10.078125 4.269531 C 10.078125 3.074219 10.765625 2.078125 11.589844 2.078125 Z M 11.589844 2.078125 "/>
</g>
</svg>
