
<svg xmlns="http://www.w3.org/2000/svg" xmlns:xlink="http://www.w3.org/1999/xlink" width="24px" height="24px" viewBox="0 0 24 24" version="1.1">
<g id="surface1">
<path style=" stroke:none;fill-rule:nonzero;fill:#ffb86c;fill-opacity:1;" d="M 21.75 21 L 2.25 21 C 1.007812 21 0 19.992188 0 18.75 L 0 5.25 C 0 4.007812 1.007812 3 2.25 3 L 21.75 3 C 22.992188 3 24 4.007812 24 5.25 L 24 18.75 C 24 19.992188 22.992188 21 21.75 21 Z M 5.25 5.625 C 3.800781 5.625 2.625 6.800781 2.625 8.25 C 2.625 9.699219 3.800781 10.875 5.25 10.875 C 6.699219 10.875 7.875 9.699219 7.875 8.25 C 7.875 6.800781 6.699219 5.625 5.25 5.625 Z M 3 18 L 21 18 L 21 12.75 L 16.898438 8.648438 C 16.679688 8.429688 16.320312 8.429688 16.101562 8.648438 L 9.75 15 L 7.148438 12.398438 C 6.929688 12.179688 6.570312 12.179688 6.351562 12.398438 L 3 15.75 Z M 3 18 "/>
</g>
</svg>
